<svg xmlns="http://www.w3.org/2000/svg" viewBox="0 0 32 32">
  <rect width="32" height="32" fill="#1a1a2e" rx="6"/>
  <path d="M16 6c-1.5 0-2.5 1-2.5 2.5V12c0 1 .5 1.5 1.5 1.5s1.5-.5 1.5-1.5v-3.5c0-.5-.3-1-1-1zm0 14c-1.5 0-2.5 1-2.5 2.5V26c0 1 .5 1.5 1.5 1.5s1.5-.5 1.5-1.5v-3.5c0-.5-.3-1-1-1zm-5-7c-1.5 0-2.5 1-2.5 2.5V19c0 1 .5 1.5 1.5 1.5s1.5-.5 1.5-1.5v-3.5c0-.5-.3-1-1-1zm10 0c-1.5 0-2.5 1-2.5 2.5V19c0 1 .5 1.5 1.5 1.5s1.5-.5 1.5-1.5v-3.5c0-.5-.3-1-1-1zm-5-10c-1.5 0-2.5 1-2.5 2.5V15c0 1 .5 1.5 1.5 1.5s1.5-.5 1.5-1.5V9.5c0-.5-.3-1-1-1z" fill="#e94560"/>
  <circle cx="16" cy="16" r="3" fill="#f5c518"/>
</svg>